<?xml version="1.0" standalone="no"?>
<svg xmlns:xlink="http://www.w3.org/1999/xlink" id="wave" style="transform:rotate(0deg); transition: 0.3s" viewBox="0 0 1440 490" version="1.1" xmlns="http://www.w3.org/2000/svg"><defs><linearGradient id="sw-gradient-0" x1="0" x2="0" y1="1" y2="0"><stop stop-color="rgba(52.651, 52.651, 52.651, 1)" offset="0%"/><stop stop-color="rgba(36.713, 36.612, 36.389, 1)" offset="100%"/></linearGradient></defs><path style="transform:translate(0, 0px); opacity:1" fill="url(#sw-gradient-0)" d="M0,392L48,351.2C96,310,192,229,288,196C384,163,480,180,576,155.2C672,131,768,65,864,73.5C960,82,1056,163,1152,179.7C1248,196,1344,147,1440,130.7C1536,114,1632,131,1728,114.3C1824,98,1920,49,2016,73.5C2112,98,2208,196,2304,269.5C2400,343,2496,392,2592,359.3C2688,327,2784,212,2880,179.7C2976,147,3072,196,3168,187.8C3264,180,3360,114,3456,138.8C3552,163,3648,278,3744,277.7C3840,278,3936,163,4032,155.2C4128,147,4224,245,4320,285.8C4416,327,4512,310,4608,318.5C4704,327,4800,359,4896,334.8C4992,310,5088,229,5184,163.3C5280,98,5376,49,5472,65.3C5568,82,5664,163,5760,187.8C5856,212,5952,180,6048,171.5C6144,163,6240,180,6336,212.3C6432,245,6528,294,6624,326.7C6720,359,6816,376,6864,383.8L6912,392L6912,490L6864,490C6816,490,6720,490,6624,490C6528,490,6432,490,6336,490C6240,490,6144,490,6048,490C5952,490,5856,490,5760,490C5664,490,5568,490,5472,490C5376,490,5280,490,5184,490C5088,490,4992,490,4896,490C4800,490,4704,490,4608,490C4512,490,4416,490,4320,490C4224,490,4128,490,4032,490C3936,490,3840,490,3744,490C3648,490,3552,490,3456,490C3360,490,3264,490,3168,490C3072,490,2976,490,2880,490C2784,490,2688,490,2592,490C2496,490,2400,490,2304,490C2208,490,2112,490,2016,490C1920,490,1824,490,1728,490C1632,490,1536,490,1440,490C1344,490,1248,490,1152,490C1056,490,960,490,864,490C768,490,672,490,576,490C480,490,384,490,288,490C192,490,96,490,48,490L0,490Z"/></svg>